HIERARCHY
ROOT SpineBase
{
  OFFSET 0.000000 0.000000 0.000000
  CHANNELS 6 Xposition Yposition Zposition Zrotation Xrotation Yrotation
  JOINT SpineMid
  {
    OFFSET 0.000000 30.861853 0.000000
    CHANNELS 3 Zrotation Xrotation Yrotation
    JOINT SpineShoulder
    {
      OFFSET 0.186516 22.721106 -1.067149
      CHANNELS 3 Zrotation Xrotation Yrotation
      JOINT Neck
      {
        OFFSET 0.092441 7.462565 -0.596498
        CHANNELS 3 Zrotation Xrotation Yrotation
        JOINT Head
        {
          OFFSET 2.364108 11.758853 0.003825
          CHANNELS 3 Zrotation Xrotation Yrotation
          End Site
          {
            OFFSET 0 0 0
          }
        }
      }
      JOINT ShoulderLeft
      {
        OFFSET -9.300482 -3.961108 -9.169469
        CHANNELS 3 Zrotation Xrotation Yrotation
        JOINT ElbowLeft
        {
          OFFSET -4.967477 -23.160819 -1.471036
          CHANNELS 3 Zrotation Xrotation Yrotation
          JOINT WristLeft
          {
            OFFSET 4.222114 -21.312916 -2.694388
            CHANNELS 3 Zrotation Xrotation Yrotation
            JOINT HandLeft
            {
              OFFSET -0.519589 -4.781973 -0.250795
              CHANNELS 3 Zrotation Xrotation Yrotation
              JOINT HandTipLeft
              {
                OFFSET 0.989263 -6.269297 0.913517
                CHANNELS 3 Zrotation Xrotation Yrotation
                End Site
                {
                  OFFSET 0 0 0
                }
              }
              JOINT ThumbLeft
              {
                OFFSET -3.517580 -1.212926 -2.317574
                CHANNELS 3 Zrotation Xrotation Yrotation
                End Site
                {
                  OFFSET 0 0 0
                }
              }
            }
          }
        }
      }
      JOINT ShoulderRight
      {
        OFFSET 11.629455 -8.768756 3.669835
        CHANNELS 3 Zrotation Xrotation Yrotation
        JOINT ElbowRight
        {
          OFFSET 4.703170 -25.480393 -2.250496
          CHANNELS 3 Zrotation Xrotation Yrotation
          JOINT WristRight
          {
            OFFSET 2.836861 -11.962819 18.559270
            CHANNELS 3 Zrotation Xrotation Yrotation
            JOINT HandRight
            {
              OFFSET -3.979562 -7.219856 -0.021652
              CHANNELS 3 Zrotation Xrotation Yrotation
              JOINT HandTipRight
              {
                OFFSET 1.113589 -2.212991 0.051955
                CHANNELS 3 Zrotation Xrotation Yrotation
                End Site
                {
                  OFFSET 0 0 0
                }
              }
              JOINT ThumbRight
              {
                OFFSET 1.476052 0.670836 -0.077477
                CHANNELS 3 Zrotation Xrotation Yrotation
                End Site
                {
                  OFFSET 0 0 0
                }
              }
            }
          }
        }
      }
    }
  }
  JOINT HipLeft
  {
    OFFSET -6.703768 1.373692 -6.811130
    CHANNELS 3 Zrotation Xrotation Yrotation
    JOINT KneeLeft
    {
      OFFSET -0.008350 -26.974623 9.273673
      CHANNELS 3 Zrotation Xrotation Yrotation
      JOINT AnkleLeft
      {
        OFFSET -8.650592 -33.656871 7.821716
        CHANNELS 3 Zrotation Xrotation Yrotation
        JOINT FootLeft
        {
          OFFSET 4.955304 -4.726939 -10.398720
          CHANNELS 3 Zrotation Xrotation Yrotation
          End Site
          {
            OFFSET 0 0 0
          }
        }
      }
    }
  }
  JOINT HipRight
  {
    OFFSET 6.668912 -0.480476 0.550619
    CHANNELS 3 Zrotation Xrotation Yrotation
    JOINT KneeRight
    {
      OFFSET -3.127655 -25.923101 14.477325
      CHANNELS 3 Zrotation Xrotation Yrotation
      JOINT AnkleRight
      {
        OFFSET -9.786060 -35.664247 12.239944
        CHANNELS 3 Zrotation Xrotation Yrotation
        JOINT FootRight
        {
          OFFSET 4.187423 -6.423160 -0.451604
          CHANNELS 3 Zrotation Xrotation Yrotation
          End Site
          {
            OFFSET 0 0 0
          }
        }
      }
    }
  }
}
MOTION
Frames: 12
Frame Time: 0.033333
3.713515 70.762511 345.238385 -0.000000 0.000000 -28.833074 0.000000 -0.000000 28.833074 -0.000000 0.000000 0.000000 -0.000000 0.000000 0.000000 0.000000 0.000000 0.000000 -0.000000 0.000000 0.000000 -0.000000 0.000000 0.000000 -0.000000 0.000000 0.000000 -0.000000 0.000000 0.000000 0.000000 0.000000 0.000000 0.000000 0.000000 0.000000 -0.000000 0.000000 0.000000 -0.000000 0.000000 0.000000 -0.000000 0.000000 0.000000 -0.000000 0.000000 0.000000 0.000000 0.000000 0.000000 0.000000 0.000000 0.000000 0.000000 -0.000000 28.833074 -0.000000 0.000000 0.000000 -0.000000 0.000000 0.000000 0.000000 0.000000 0.000000 0.000000 -0.000000 28.833074 -0.000000 0.000000 0.000000 -0.000000 0.000000 0.000000 0.000000 0.000000 0.000000
3.729926 70.857631 345.259233 -0.031668 -0.047140 -28.661960 0.005177 0.056553 28.661945 -0.000000 0.000000 0.000000 -0.000000 0.000000 0.000000 0.000000 0.000000 0.000000 -0.000000 0.000000 0.000000 -0.000000 0.000000 0.000000 4.665845 -3.526765 0.283924 -3.472895 5.637981 0.412833 0.000000 0.000000 0.000000 0.000000 0.000000 0.000000 -0.372209 0.846987 0.191955 0.369410 -0.848211 -0.186469 1.990255 6.892479 -3.965216 -4.597945 -13.429020 -0.053471 0.000000 0.000000 0.000000 0.000000 0.000000 0.000000 0.005177 0.056553 28.661945 -0.000000 0.000000 0.000000 -0.000000 0.000000 0.000000 0.000000 0.000000 0.000000 0.005177 0.056553 28.661945 -0.000000 0.000000 0.000000 -0.934154 -3.336090 -2.152618 0.000000 0.000000 0.000000
3.760812 70.948801 345.302790 -0.048988 -0.122099 -28.580046 -0.015392 0.130656 28.580011 -0.000000 0.000000 0.000000 -0.000000 0.000000 0.000000 0.000000 0.000000 0.000000 -0.000000 0.000000 0.000000 -0.000000 0.000000 0.000000 8.601817 -6.290448 0.713638 -6.384541 10.095961 0.834729 0.000000 0.000000 0.000000 0.000000 0.000000 0.000000 -0.770978 1.683767 0.390214 0.759824 -1.688829 -0.367685 4.755249 12.332670 -7.511359 -9.347592 -24.042967 -0.983650 0.000000 0.000000 0.000000 0.000000 0.000000 0.000000 -0.015392 0.130656 28.580011 -0.000000 0.000000 0.000000 0.275731 -0.176666 -0.792029 0.000000 0.000000 0.000000 -0.674925 0.702315 28.314479 0.309526 -0.816059 0.272531 -1.785569 -5.871780 -3.848901 0.000000 0.000000 0.000000
3.806171 71.036022 345.369057 -0.051876 -0.225029 -28.588356 -0.062128 0.222417 28.588375 -0.000000 0.000000 0.000000 -0.000000 0.000000 0.000000 0.000000 0.000000 0.000000 -0.000000 0.000000 0.000000 0.842712 -0.589403 -0.218789 11.112261 -7.792007 1.288792 -8.919183 13.393858 1.220980 0.000000 0.000000 0.000000 0.000000 0.000000 0.000000 -1.189852 2.494401 0.591480 1.165162 -2.506024 -0.540089 8.032817 16.061880 -10.442894 -14.645266 -31.290223 -2.507997 0.000000 0.000000 0.000000 0.000000 0.000000 0.000000 -0.062128 0.222417 28.588375 -0.000000 0.000000 0.000000 0.409606 -0.269074 -1.183840 0.000000 0.000000 0.000000 -0.999225 1.066290 28.219423 0.426826 -1.186588 0.383911 -2.497425 -7.655773 -5.082809 0.000000 0.000000 0.000000
3.866006 71.119292 345.458033 -0.040252 -0.356081 -28.687416 -0.135620 0.331695 28.687684 -0.000000 0.000000 0.000000 -0.000000 0.000000 0.000000 0.000000 0.000000 0.000000 -0.000000 0.000000 0.000000 1.135259 -0.712260 -0.277243 13.678367 -9.242793 1.743966 -11.227504 15.561453 1.557320 0.000000 0.000000 0.000000 0.000000 0.000000 0.000000 -1.621308 3.263437 0.791988 1.155908 -2.319029 -1.173483 11.814781 17.180235 -11.876060 -20.566367 -35.064688 -4.302303 0.000000 0.000000 0.000000 0.000000 0.000000 0.000000 -0.960198 0.829216 28.528812 0.486902 -0.830857 0.170756 0.540781 -0.364153 -1.572808 0.000000 0.000000 0.000000 -1.317535 1.436231 28.234510 0.519031 -1.532063 0.478349 -3.033759 -8.736237 -5.852364 0.000000 0.000000 0.000000
3.940314 71.198614 345.569718 -0.014034 -0.515399 -28.877237 -0.236620 0.458089 28.878120 -0.000000 0.000000 0.000000 -0.000000 0.000000 0.000000 0.000000 0.000000 0.000000 -0.000000 0.000000 0.000000 1.433027 -0.797214 -0.328609 15.846824 -10.281370 2.142042 -13.424979 16.635192 1.840757 0.000000 0.000000 0.000000 0.000000 0.000000 0.000000 -2.057188 3.976898 0.987718 1.173489 -2.117058 -1.783371 15.644745 16.697128 -12.169115 -26.854504 -35.460662 -5.899221 0.000000 0.000000 0.000000 0.000000 0.000000 0.000000 -1.335258 1.083679 28.665028 0.664044 -1.075750 0.234107 0.669225 -0.461868 -1.958907 0.000000 0.000000 0.000000 -1.632127 1.810370 28.359543 0.586157 -1.852510 0.555680 -3.375000 -9.147570 -6.156024 0.000000 0.000000 0.000000
4.095025 71.294129 345.751873 0.112414 -0.769223 -29.295948 -0.474454 0.615827 29.299253 -0.000000 0.000000 0.000000 -0.000000 0.000000 0.000000 0.000000 0.000000 0.000000 -0.000000 0.000000 0.000000 1.605202 -1.015516 -0.389252 18.771977 -10.694175 2.430840 -17.313007 15.922469 2.216951 0.000000 0.000000 0.000000 0.000000 0.000000 0.000000 -2.482732 4.880179 1.226701 0.892942 -2.102923 -2.915270 20.661647 13.280091 -9.591013 -39.224185 -26.090322 -5.931259 0.000000 0.000000 0.000000 0.000000 0.000000 0.000000 -2.195640 1.063939 28.881933 1.290982 -1.223214 0.456334 0.852515 -0.605300 -2.514721 0.000000 0.000000 0.000000 -2.939164 2.373463 28.301248 1.338788 -2.714490 1.094031 -5.068629 -13.657090 -9.530588 0.000000 0.000000 0.000000
3.997862 71.289755 345.821334 -0.057617 -0.844106 -29.644684 -0.367456 0.762115 29.646703 -0.000000 0.000000 0.000000 -1.294134 0.417512 -0.078626 0.000000 0.000000 0.000000 0.838802 -0.523419 0.062934 0.914841 -0.495729 -0.478409 20.961147 -11.170067 2.693486 -19.962995 15.849281 2.559118 0.000000 0.000000 0.000000 0.000000 0.000000 0.000000 -2.798276 5.411513 1.379466 0.441465 -0.803333 -3.946167 23.542748 9.084590 -5.965548 -42.437953 -17.387891 -2.499686 0.000000 0.000000 0.000000 0.000000 0.000000 0.000000 -2.202642 1.013636 29.167641 1.480179 -1.113420 0.521886 2.068724 1.501839 -2.866546 0.000000 0.000000 0.000000 -2.750094 2.712059 28.743183 1.153391 -2.853818 1.004497 -4.310418 -11.468806 -7.868325 0.000000 0.000000 0.000000
4.032924 71.471827 345.686814 0.004302 -0.733037 -30.178870 -0.372233 0.631514 30.180949 -0.000000 0.000000 0.000000 -2.210339 0.432212 -0.077538 0.000000 0.000000 0.000000 1.208041 -0.747263 0.091667 0.898484 0.012949 -0.500286 21.223806 -12.243706 3.085950 -19.050741 15.687765 2.380485 0.000000 0.000000 0.000000 0.000000 0.000000 0.000000 -3.210285 5.641646 1.485148 0.129787 1.873539 -4.689025 27.236569 3.326335 -1.188162 -43.763717 -14.626507 -3.454659 0.000000 0.000000 0.000000 0.000000 0.000000 0.000000 -1.831120 0.908680 29.813541 1.128166 -0.965477 0.396523 1.839722 0.844037 -3.073934 0.000000 0.000000 0.000000 -2.230056 2.558373 29.555810 0.666770 -2.591720 0.691943 -1.955843 -3.464941 -2.210236 0.000000 0.000000 0.000000
4.348168 71.604746 346.022122 0.281823 -1.189813 -30.701001 -0.849871 0.879115 30.710447 -0.000000 0.000000 0.000000 -2.990637 0.470861 -0.080977 0.000000 0.000000 0.000000 1.524651 -0.945594 0.118955 0.851237 0.540633 -0.503377 20.836791 -13.304355 3.421019 -19.917981 13.785987 2.136387 0.000000 0.000000 0.000000 0.000000 0.000000 0.000000 -3.521253 5.520572 1.502746 -0.123375 5.241890 -5.032763 32.543302 -4.449925 5.990248 -51.809812 -8.026740 -4.467761 0.000000 0.000000 0.000000 0.000000 0.000000 0.000000 -2.868835 1.629870 30.287131 1.365423 -1.665527 0.487371 -0.719665 -4.548789 -3.548841 0.000000 0.000000 0.000000 -1.563106 2.959234 30.725789 -1.268484 -1.564210 -0.468603 0.805751 8.262637 6.183334 0.000000 0.000000 0.000000
4.921534 71.723993 346.668323 0.794170 -1.982970 -31.075195 -0.792937 1.413566 31.129271 -0.844541 0.363652 -0.039975 -4.084110 -0.420815 0.070425 0.000000 0.000000 0.000000 1.511407 -0.790931 0.084347 2.196415 0.454715 -0.635351 20.814492 -10.250401 2.643783 -22.874727 8.400847 1.973456 0.000000 0.000000 0.000000 0.000000 0.000000 0.000000 -3.948972 5.950083 1.656311 -0.044532 7.694525 -5.172435 38.126782 -11.949476 14.097617 -53.400957 -4.991072 -6.937588 0.000000 0.000000 0.000000 0.000000 0.000000 0.000000 -4.316432 4.377697 31.015420 -1.348609 -4.959852 -0.126437 -1.011224 -8.734701 -4.509041 0.000000 0.000000 0.000000 -0.687072 3.491592 32.031289 -3.443440 0.246329 -1.922881 1.969541 20.778400 15.168792 0.000000 0.000000 0.000000
5.402427 71.798529 347.723043 1.297730 -3.028241 -31.347369 -1.186610 1.453526 31.440914 -0.670806 0.203936 -0.010772 -5.455949 -0.066198 0.209417 0.000000 0.000000 0.000000 0.745537 0.776421 -0.085573 4.095019 0.135404 -0.646769 20.280374 -9.729554 2.667436 -18.153187 9.764709 2.174839 0.000000 0.000000 0.000000 0.000000 0.000000 0.000000 -4.942618 6.757286 1.748579 0.469931 10.003796 -4.866940 44.953120 -19.068142 23.736070 -51.325102 0.499733 -8.426098 0.000000 0.000000 0.000000 0.000000 0.000000 0.000000 -5.999489 8.603861 31.971710 -4.314021 -9.642897 -1.059570 -1.527716 -11.373883 -4.908933 0.000000 0.000000 0.000000 0.379349 4.551523 33.416838 -5.236293 2.287991 -3.381010 9.872389 28.221415 17.878218 0.000000 0.000000 0.000000
